<svg viewBox="0 0 32 32" xmlns="http://www.w3.org/2000/svg"><path d="m16 2c-7.7 0-14 6.3-14 14 0 6.2 3.9 11.4 9.5 13.3.7.1 1-.3 1-.7v-2.6c-3.5.6-4.5-.8-4.8-1.6-.2-.4-.7-1.7-1.3-2-.5-.3-1.2-1 0-1 1.1 0 1.8 1.1 2.1 1.5 1.3 2.1 3.3 1.5 4.1 1.1.1-.9.4-1.6.8-1.9-3.1-.4-6.3-1.4-6.3-6.8 0-1.5.5-2.8 1.4-3.8-.1-.4-.6-1.8.2-3.7 0 0 1.1-.3 3.8 1.5 1.1-.3 2.3-.6 3.5-.6s2.4.3 3.5.6c2.7-1.8 3.8-1.5 3.8-1.5.8 1.9.3 3.4.2 3.7.9 1 1.4 2.3 1.4 3.8 0 5.4-3.2 6.5-6.3 6.8.5.4.9 1.4.9 2.7v3.8c0 .4.3.8 1 .7 5.5-1.9 9.5-7.1 9.5-13.3 0-7.7-6.3-14-14-14z"/></svg>