<svg viewBox="0 0 32 32" xmlns="http://www.w3.org/2000/svg"><path d="m21 4-.4 2.2-1.7.7-1.9-1.3-1.4 1.4 1.3 1.9-.7 1.7-2.2.4v2l2.2.4.7 1.7-1.3 1.9 1.4 1.4 1.9-1.3 1 .5c1.5-1 3.3-1.6 5.1-1.6 1.1 0 2.1.2 3.1.6l-1-1.5.7-1.7 2.2-.4v-2l-2.2-.4-.7-1.7 1.3-1.9-1.4-1.4-1.9 1.3-1.7-.7-.4-2.2zm1 5c1.7 0 3 1.3 3 3s-1.3 3-3 3-3-1.3-3-3 1.3-3 3-3zm-13 3-.4 2.2-1.7.7-1.9-1.3-1.4 1.4 1.3 1.9-.7 1.7-2.2.4v2l2.2.4.7 1.7-1.3 1.9 1.4 1.4 1.9-1.3 1.7.7.4 2.2h2l.4-2.2 1.7-.7 1.9 1.3 1-1v-.9l-.9-1.4.7-1.7 1.1-.2c.3-.7.6-1.2 1.1-1.8v-.4l-2.2-.4-.7-1.7 1.3-1.9-1.4-1.4-1.9 1.3-1.7-.7-.4-2.2zm1 5c1.7 0 3 1.3 3 3s-1.3 3-3 3-3-1.3-3-3 1.3-3 3-3z"/><path d="m25 18c-3.9 0-7 3.1-7 7s3.1 7 7 7 7-3.1 7-7-3.1-7-7-7zm5 6v2h-4v4h-2v-4h-4v-2h4v-4h2v4z"/></svg>