<svg viewBox="0 0 32 32" xmlns="http://www.w3.org/2000/svg"><path d="m4 2v28h24v-18h-10v-10zm16 0v8h8zm-4.4 7.1c.5 1.4.1 3.7-.2 5.1.9 2 2.2 3.3 3.9 4.2 1.4-.3 5-.8 6.1.2.9.8.9 3.1-1.3 3.2-1.3.1-3.6-.4-5.4-1.2-2 .4-4.3 1.5-6.3 2.3-.8 1.7-1.5 2.8-2.2 3.6-2.2 2.7-4.4 1.1-4.2-.2.3-1.8 2.8-3.5 4.4-4.4.9-1.8 1.9-4.8 2.7-7.1-.8-2.6-1.3-4.5-1-6 .5-2.1 2.8-1.6 3.5.3zm-1.7-.3c-.7 0-.3 2.5.4 3.7.3-1.1.3-3.7-.4-3.7zm.5 7.5c-.5 1.6-1.1 3.5-1.9 5.1 1.4-.6 3-1.6 4.9-2.1-1.1-.7-2.2-1.7-3-3zm6.6 3.4c3 1.1 3.8.9 3.8.5-.1-1.1-2.4-.7-3.8-.5zm-10.8 3.5c-.6.5-3.3 2.6-2.6 3.4.4.3 1-.5 2.6-3.4z"/></svg>