<svg viewBox="0 0 32 32" xmlns="http://www.w3.org/2000/svg"><path d="m2 2v28h14c-.5-.6-.9-1.3-1.2-2h-10.8v-20h24v6.8c.7.3 1.4.7 2 1.2v-14zm4 8v4h4v-4zm6 0v4h6v-4zm8 0v4h6v-4zm-14 6v4h4v-4zm6 0v4h2.8c.7-1.6 1.8-3 3.2-4zm-6 6v4h4v-4zm6 0v4h2.2c-.1-.7-.2-1.3-.2-2s.1-1.3.2-2z"/><path d="m23 16-.4 2.2-1.7.7-1.9-1.3-1.4 1.4 1.3 1.9-.7 1.7-2.2.4v2l2.2.4.7 1.7-1.3 1.9 1.4 1.4 1.9-1.3 1.7.7.4 2.2h2l.4-2.2 1.7-.7 1.9 1.3 1.4-1.4-1.3-1.9.7-1.7 2.2-.4v-2l-2.2-.4-.7-1.7 1.3-1.9-1.4-1.4-1.9 1.3-1.7-.7-.4-2.2zm1 5c1.7 0 3 1.3 3 3s-1.3 3-3 3-3-1.3-3-3 1.3-3 3-3z"/></svg>