<svg viewBox="0 0 32 32" xmlns="http://www.w3.org/2000/svg"><path d="m16 2c-6.6 0-12 2.2-12 5v4c0 2.8 5.4 5 12 5 .7 0 1.4 0 2.1-.1 1.7-1.2 3.8-1.9 5.9-1.9.5 0 .9 0 1.4.1 1.6-.9 2.6-1.9 2.6-3.1v-4c0-2.8-5.4-5-12-5zm0 2c5 0 9 1.6 9 3.5s-4 3.5-9 3.5-9-1.6-9-3.5 4-3.5 9-3.5zm-12 9v5c0 2.5 4.4 4.5 10.1 4.9.2-1.8.8-3.5 1.9-4.9-6.6 0-12-2.2-12-5zm24 0c0 .5-.3 1.1-.7 1.6.2.1.5.1.7.2zm-24 7v5c0 2.8 5.4 5 12 5-1.1-1.5-1.7-3.3-1.9-5.1-5.7-.4-10.1-2.4-10.1-4.9z"/><path d="m23 16-.4 2.2-1.7.7-1.9-1.3-1.4 1.4 1.3 1.9-.7 1.7-2.2.4v2l2.2.4.7 1.7-1.3 1.9 1.4 1.4 1.9-1.3 1.7.7.4 2.2h2l.4-2.2 1.7-.7 1.9 1.3 1.4-1.4-1.3-1.9.7-1.7 2.2-.4v-2l-2.2-.4-.7-1.7 1.3-1.9-1.4-1.4-1.9 1.3-1.7-.7-.4-2.2zm1 5c1.7 0 3 1.3 3 3s-1.3 3-3 3-3-1.3-3-3 1.3-3 3-3z"/></svg>