<svg viewBox="0 0 32 32" xmlns="http://www.w3.org/2000/svg"><path d="m11 2c3.2 0 6.2.7 7.8 2-1.3.1-2.5.3-3.6.6-1.2-.4-2.7-.6-4.2-.6-3.9 0-7 1.3-7 3 0 1.5 2.6 2.8 6 3v4c-4.5-.2-8-1.9-8-4v-4c0-2.2 4-4 9-4zm10 4c5 0 9 1.8 9 4v4c0 2.2-4 4-9 4s-9-1.8-9-4v-4c0-2.2 4-4 9-4zm0 2c-3.9 0-7 1.3-7 3s3.1 3 7 3 7-1.3 7-3-3.1-3-7-3zm-19 4c0 2 3.4 3.8 8 4v4c-4.5-.2-8-1.9-8-4zm28 4v4c0 2.2-4 4-9 4s-9-1.8-9-4v-4c0 2.2 4 4 9 4s9-1.8 9-4zm-28 2c0 2 3.4 3.8 8 4v4c-4.5-.2-8-1.9-8-4zm28 4v4c0 2.2-4 4-9 4s-9-1.8-9-4v-4c0 2.2 4 4 9 4s9-1.8 9-4z"/></svg>