<svg viewBox="0 0 32 32" xmlns="http://www.w3.org/2000/svg"><path d="m9 6c-1.7 0-2.4 1.4-3 3l-3 7c-.8 1-1 2.7-1 4 0 3.3 2.7 6 6 6s6-2.7 6-6c0-1.1.9-2 2-2s2 .9 2 2c0 3.3 2.7 6 6 6s6-2.7 6-6c0-1.3-.2-3-1-4l-3-7c-.6-1.6-1.3-3-3-3h-2v2h2c.6 0 .8.5 1 1l2 5.4c-.6-.2-1.3-.4-2-.4-2.2 0-4.2 1.2-5.3 3.1-.7-.7-1.7-1.1-2.7-1.1s-2 .4-2.7 1.1c-1.1-1.9-3.1-3.1-5.3-3.1-.7 0-1.4.2-2 .4l2-5.4c.2-.5.4-1 1-1h2v-2zm-1 10c2.2 0 4 1.8 4 4s-1.8 4-4 4-4-1.8-4-4 1.8-4 4-4zm16 0c2.2 0 4 1.8 4 4s-1.8 4-4 4-4-1.8-4-4 1.8-4 4-4z"/></svg>