<svg xmlns="http://www.w3.org/2000/svg" xmlns:xlink="http://www.w3.org/1999/xlink"><symbol viewBox="0 0 16 16" id="ajax_clock_small">
  <image href="sprite/ajax_clock_small.gif" height="16" width="16"/>
</symbol><symbol viewBox="0 0 16 16" id="asc_order">
  <image href="sprite/asc_order.png" height="16" width="16"/>
</symbol><symbol viewBox="0 0 32 32" id="b_bookmark">
  <path d="M2 2v28l10-10 4 4c.4-3.4 2.7-6.3 6-7.5V2z"/>
  <path d="M25 18c-3.9 0-7 3.1-7 7s3.1 7 7 7 7-3.1 7-7-3.1-7-7-7zm-5 6h4v-4h2v4h4v2h-4v4h-2v-4h-4z"/>
</symbol><symbol viewBox="0 0 32 32" id="b_browse">
  <path d="M2 2v28h28V2zm8 2h8v4h-8zm10 0h8v4h-8zM4 10h4v4H4zm6 0h8v4h-8zm10 0h8v4h-8zM4 16h4v6H4zm6 0h8v6h-8zm10 0h8v6h-8zm-8 2v2h4v-2zm10 0v2h4v-2zM4 24h4v4H4zm6 0h8v4h-8zm10 0h8v4h-8z"/>
</symbol><symbol viewBox="0 0 16 16" id="b_calendar">
  <image href="sprite/b_calendar.png" height="16" width="16"/>
</symbol><symbol viewBox="0 0 32 32" id="b_chart">
  <path d="M6 10v16h6V10zm8-4v20h6V6zm8 8v12h6V14z"/>
  <path d="M2 2v28h28v-2H4V2z"/>
</symbol><symbol viewBox="0 0 32 32" id="b_close">
  <path d="m4 23 5 5 7-7 7 7 5-5-7-7 7-7-5-5-7 7-7-7-5 5 7 7z"/>
</symbol><symbol viewBox="0 0 32 32" id="b_column_add">
  <path d="M14 2v28h3.5c-1-1.5-1.5-3.2-1.5-5 0-2.1.7-4 2-5.6V2zM4 6v20h8V6zm16 0v11.5c.6-.4 1.3-.8 2-1V14h4v2.1c.7.1 1.4.2 2 .4V6zM6 8h4v4H6zm16 0h4v4h-4zM6 14h4v4H6zm0 6h4v4H6zm19-2c-3.9 0-7 3.1-7 7s3.1 7 7 7 7-3.1 7-7-3.1-7-7-7zm5 6v2h-4v4h-2v-4h-4v-2h4.1l-.1-4h2v4z"/>
</symbol><symbol viewBox="0 0 32 32" id="b_comment">
  <path d="M5 4C3.3 4 2 5.3 2 7v10c0 1.7 1.3 3 3 3h3v8l10-8h9c1.7 0 3-1.3 3-3V7c0-1.7-1.3-3-3-3zm1 4h20v2H6zm0 4h14v2H6z"/>
</symbol><symbol viewBox="0 0 16 16" id="b_dbstatistics">
  <image href="sprite/b_dbstatistics.png" height="16" width="16"/>
</symbol><symbol viewBox="0 0 32 32" id="b_deltbl">
  <path d="M2 2v28h15.4c-.4-.6-.8-1.3-1-2H4V8h24v8.4c.7.2 1.4.6 2 1V2zm4 8v4h4v-4zm6 0v4h6v-4zm8 0v4h6v-4zM6 16v4h4v-4zm6 0v4h5.4c.2-.3.4-.5.6-.8V16zm8 0v1.4c1.1-.7 2.4-1.2 3.7-1.4zM6 22v4h4v-4zm6 0v4h4c0-.3-.1-.7-.1-1 0-1 .2-2 .5-3z"/>
  <path d="M25 18c-3.9 0-7 3.1-7 7s3.1 7 7 7 7-3.1 7-7-3.1-7-7-7zm5 6v2H20v-2z"/>
</symbol><symbol viewBox="0 0 32 32" id="b_docs">
  <path d="M16 2C8.3 2 2 8.3 2 16s6.3 14 14 14 14-6.3 14-14S23.7 2 16 2zm0 6c2.9 0 5 1.5 5 4 0 1.2-.9 2.1-2 3-1 .8-1.4 1.5-1.5 3h-3c0-2.6 1.1-3.4 2.4-4.7.9-.9.8-1.7.1-2.3-1.3-1-3.2-.1-4.6.5l-.8-2.4C13 8.3 15 8 16 8zm0 12c1.1 0 2 .9 2 2s-.9 2-2 2-2-.9-2-2 .9-2 2-2z"/>
</symbol><symbol viewBox="0 0 16 16" id="b_docsql">
  <image href="sprite/b_docsql.png" height="16" width="16"/>
</symbol><symbol viewBox="0 0 32 32" id="b_drop">
  <path d="M16 2A14 14 0 0 0 2 16a14 14 0 0 0 14 14 14 14 0 0 0 14-14A14 14 0 0 0 16 2zM8 14h16v4H8z"/>
</symbol><symbol viewBox="0 0 32 32" id="b_edit">
  <path d="m20 5 7 7 2-2c1.3-1.4 1.3-2.7 0-4l-3-3c-1.3-1.3-2.7-1.3-4 0zm-1 1L2 23v7h7l17-17zM5.5 22.5l4 4L8 28H6v-2H4v-2z"/>
</symbol><symbol viewBox="0 0 32 32" id="b_empty">
  <path d="M8 2v12h14V8h-6V2zm10 0v4h4zM2 10v16h4v-6h18v6h6V10h-6v6H6v-6zm25 2a1 1 0 0 1 1 1 1 1 0 0 1-1 1 1 1 0 0 1-1-1 1 1 0 0 1 1-1zM8 22v8h2v-8zm4 0v6h2v-6zm4 0v4h2v-4zm4 0v6h2v-6z"/>
</symbol><symbol viewBox="0 0 32 32" id="b_engine">
  <path d="M16 2C9.4 2 4 4.2 4 7v4c0 2.8 5.4 5 12 5 .7 0 1.4 0 2.1-.1 1.7-1.2 3.8-1.9 5.9-1.9.5 0 .9 0 1.4.1C27 13.2 28 12.2 28 11V7c0-2.8-5.4-5-12-5zm0 2c5 0 9 1.6 9 3.5S21 11 16 11 7 9.4 7 7.5 11 4 16 4zM4 13v5c0 2.5 4.4 4.5 10.1 4.9.2-1.8.8-3.5 1.9-4.9-6.6 0-12-2.2-12-5zm24 0c0 .5-.3 1.1-.7 1.6.2.1.5.1.7.2zM4 20v5c0 2.8 5.4 5 12 5-1.1-1.5-1.7-3.3-1.9-5.1C8.4 24.5 4 22.5 4 20zm19-4-.4 2.2-1.7.7-1.9-1.3-1.4 1.4 1.3 1.9-.7 1.7-2.2.4v2l2.2.4.7 1.7-1.3 1.9 1.4 1.4 1.9-1.3 1.7.7.4 2.2h2l.4-2.2 1.7-.7 1.9 1.3 1.4-1.4-1.3-1.9.7-1.7L32 25v-2l-2.2-.4-.7-1.7 1.3-1.9-1.4-1.4-1.9 1.3-1.7-.7L25 16zm1 5c1.7 0 3 1.3 3 3s-1.3 3-3 3-3-1.3-3-3 1.3-3 3-3z"/>
</symbol><symbol viewBox="0 0 32 32" id="b_event_add">
  <path d="M16 2C8.3 2 2 8.3 2 16s6.3 14 14 14v-3C9.9 27 5 22.1 5 16S9.9 5 16 5s11 4.9 11 11h3c0-7.7-6.3-14-14-14zm-6 7-1 1v1l7 7 5-5v-1l-1-1h-1l-3 3-5-5z"/>
  <path d="M25 18c-3.9 0-7 3.1-7 7s3.1 7 7 7 7-3.1 7-7-3.1-7-7-7zm5 6v2h-4v4h-2v-4h-4v-2h4v-4h2v4z"/>
</symbol><symbol viewBox="0 0 32 32" id="b_events">
  <path d="M16 2C8.3 2 2 8.3 2 16s6.3 14 14 14 14-6.3 14-14S23.7 2 16 2zm0 3c6.1 0 11 4.9 11 11s-4.9 11-11 11S5 22.1 5 16 9.9 5 16 5zm-6 4-1 1v1l7 7 5-5v-1l-1-1h-1l-3 3-5-5z"/>
</symbol><symbol viewBox="0 0 32 32" id="b_export">
  <path d="M6 2v11l4-4h2v5h8v12h-8v4h18V12H20V2zm16 0v8h8zM6 27v3h3z"/>
  <path d="m10 12-8 8 8 8v-4h8v-8h-8z"/>
</symbol><symbol viewBox="0 0 32 32" id="b_favorite">
  <path d="m16 2-4 10H2l8 7-4 11 10-6 10 6-4-11 8-7H20z"/>
</symbol><symbol viewBox="0 0 32 32" id="b_find_replace">
  <path d="M12 2C6.5 2 2 6.5 2 12c0 2.1.7 4.1 1.8 5.7l1.5-3.8c-.2-.6-.3-1.2-.3-1.9 0-3.9 3.1-7 7-7s7 3.1 7 7c0 3-1.9 5.5-4.5 6.5l1.1 2.8c.8-.3 1.7-.7 2.4-1.3l9 10 3-3-10-9c1.3-1.7 2-3.8 2-6 0-5.5-4.5-10-10-10z"/>
  <path d="M7 16 2 30h4l.5-2h5l.5 2h4l-5-14zm2 4 1.5 4h-3z"/>
</symbol><symbol viewBox="0 0 16 16" id="b_firstpage">
  <image href="sprite/b_firstpage.png" height="16" width="16"/>
</symbol><symbol viewBox="0 0 32 32" id="b_ftext">
  <path d="M12 2v28h2V2zM2 6v20h8V6zm2 2h4v4H4zm0 6h4v4H4zm0 6h4v4H4zM18 8v4h4v12h4V12h4V8z"/>
</symbol><symbol viewBox="0 0 32 32" id="b_globe">
  <path d="M16 2C8.3 2 2 8.3 2 16s6.3 14 14 14 14-6.3 14-14S23.7 2 16 2zm0 3 .8 1.9 2-1.5c.3.1.7.2 1 .3l-1.2.9-.8 3.1.7.7-.7 1.8 2.1 2.2 2.5-1.1 1.2 3 1.4 1 2-1.2c-.1 6-5 10.9-11 10.9-6.1 0-11-4.9-11-11 0-.2.1-.5.1-.7l3 1.9 4.2.2.5 1.7 1.3.6 1.8 5 1.1.4-.1-3.7 1.2-2.6-.5-2.1-4.3-.6-1.1.4-2.2-.4 1.2-1.3 1.4-4.1-2.2-1.6L7.6 9c2.1-2.5 5.1-4 8.4-4z"/>
</symbol><symbol viewBox="0 0 32 32" id="b_group">
  <path d="M11 2c3.2 0 6.2.7 7.8 2-1.3.1-2.5.3-3.6.6C14 4.2 12.5 4 11 4 7.1 4 4 5.3 4 7c0 1.5 2.6 2.8 6 3v4c-4.5-.2-8-1.9-8-4V6c0-2.2 4-4 9-4zm10 4c5 0 9 1.8 9 4v4c0 2.2-4 4-9 4s-9-1.8-9-4v-4c0-2.2 4-4 9-4zm0 2c-3.9 0-7 1.3-7 3s3.1 3 7 3 7-1.3 7-3-3.1-3-7-3zM2 12c0 2 3.4 3.8 8 4v4c-4.5-.2-8-1.9-8-4zm28 4v4c0 2.2-4 4-9 4s-9-1.8-9-4v-4c0 2.2 4 4 9 4s9-1.8 9-4zM2 18c0 2 3.4 3.8 8 4v4c-4.5-.2-8-1.9-8-4zm28 4v4c0 2.2-4 4-9 4s-9-1.8-9-4v-4c0 2.2 4 4 9 4s9-1.8 9-4z"/>
</symbol><symbol viewBox="0 0 32 32" id="b_help">
  <path d="M16 2C8.3 2 2 8.3 2 16s6.3 14 14 14 14-6.3 14-14S23.7 2 16 2zm0 3c6.1 0 11 4.9 11 11s-4.9 11-11 11S5 22.1 5 16 9.9 5 16 5zm0 3c-1 0-3.1.3-4.5 1.1l.9 2.4c1.4-.6 3.3-1.5 4.6-.5.7.6.8 1.4-.1 2.3-1.3 1.3-2.4 2.1-2.4 4.7h3c.1-1.5.5-2.2 1.5-3 1.1-.9 2-1.8 2-3 0-2.5-2.1-4-5-4zm0 12c-1.1 0-2 .9-2 2s.9 2 2 2 2-.9 2-2-.9-2-2-2z"/>
</symbol><symbol viewBox="0 0 32 32" id="b_home">
  <path d="M16 11 6 21v7h7v-7h6v7h7v-7z"/>
  <path d="M16 4 2 18v4L16 8l14 14v-4z"/>
</symbol><symbol viewBox="0 0 32 32" id="b_import">
  <path d="M4 2v12h2V9h2l11 11L9 30h19V12H18V2zm16 0v8h8zM4 26v4h2v-4z"/>
  <path d="M8 12v4H0v8h8v4l8-8z"/>
</symbol><symbol viewBox="0 0 32 32" id="b_index">
  <path d="M12 2v28h2V2zM2 6v20h8V6zm2 2h4v4H4zm0 6h4v4H4zm0 6h4v4H4zM29 4 17 18h6l-3 10 11-14h-6z"/>
</symbol><symbol viewBox="0 0 32 32" id="b_index_add">
  <path d="M20 2 4 18h12l-4 12 4-4v-1c0-5 4-9 9-9h1l2-2H16z"/>
  <path d="M25 18c-3.9 0-7 3.1-7 7s3.1 7 7 7 7-3.1 7-7-3.1-7-7-7zm5 6v2h-4v4h-2v-4h-4v-2h4v-4h2v4z"/>
</symbol><symbol viewBox="0 0 16 16" id="b_inline_edit">
  <image href="sprite/b_inline_edit.png" height="16" width="16"/>
</symbol><symbol viewBox="0 0 32 32" id="b_insrow">
  <path d="M6 4v8h20V4zm2 2h4v4H8zm6 0h4v4h-4zm6 0h4v4h-4zM2 14v4h17.4c1.6-1.3 3.5-2 5.6-2 1.8 0 3.5.5 5 1.5V14zm4 6v8h10.5c-.2-.6-.3-1.3-.4-2H14v-4h2.5c.2-.7.6-1.4 1-2zm2 2h4v4H8zm17-4c-3.9 0-7 3.1-7 7s3.1 7 7 7 7-3.1 7-7-3.1-7-7-7zm5 6v2h-4v4h-2v-4h-4v-2h4v-4h2v4z"/>
</symbol><symbol viewBox="0 0 16 16" id="b_lastpage">
  <image href="sprite/b_lastpage.png" height="16" width="16"/>
</symbol><symbol viewBox="0 0 16 16" id="b_left">
  <image href="sprite/b_left.png" height="16" width="16"/>
</symbol><symbol viewBox="0 0 32 32" id="b_minus">
  <path d="M6 6v18h18V6zm14 8v2H10v-2z"/>
</symbol><symbol viewBox="0 0 32 32" id="b_more">
  <path d="M16 22 6 10h20z"/>
</symbol><symbol viewBox="0 0 32 32" id="b_move">
  <path d="M14 12v18h4V12zM4 16v14h8V16zm16 0v14h8V16zM6 18h4v4H6zm16 0h4v4h-4zM6 24h4v4H6zm16 0h4v4h-4z"/>
  <path d="M10 2 4 8l6 6v-4h12v4l6-6-6-6v4H10z"/>
</symbol><symbol viewBox="0 0 32 32" id="b_newdb">
  <path d="M16 2C9.4 2 4 4.2 4 7v4c0 2.8 5.4 5 12 5s12-2.2 12-5V7c0-2.8-5.4-5-12-5zm0 2c5 0 9 1.6 9 3.5S21 11 16 11 7 9.4 7 7.5 11 4 16 4zM4 13v5c0 2.8 5.4 5 12 5h.2c.5-2.1 1.8-3.9 3.5-5.2-1.2.2-2.4.2-3.7.2-6.6 0-12-2.2-12-5zm24 0c0 1.1-.9 2.1-2.5 3 .8.1 1.7.2 2.5.5zM4 20v5c0 2.8 5.4 5 12 5 .5 0 1 0 1.5-.1-1-1.5-1.5-3.1-1.5-4.9-6.6 0-12-2.2-12-5zm21-2c-3.9 0-7 3.1-7 7s3.1 7 7 7 7-3.1 7-7-3.1-7-7-7zm5 6v2h-4v4h-2v-4h-4v-2h4v-4h2v4z"/>
</symbol><symbol viewBox="0 0 16 16" id="b_newtbl">
  <image href="sprite/b_newtbl.png" height="16" width="16"/>
</symbol><symbol viewBox="0 0 16 16" id="b_nextpage">
  <image href="sprite/b_nextpage.png" height="16" width="16"/>
</symbol><symbol viewBox="0 0 32 32" id="b_no_favorite">
  <path d="m16 2-4 10H2l8 7-4 11 10-6 10 6-4-11 8-7H20zm0 5.5 2.6 6.5h6.1l-5 4.4 2.5 6.9-6.2-3.7-6.2 3.7 2.5-6.9-5-4.4h6.1z"/>
</symbol><symbol viewBox="0 0 16 16" id="b_pdfdoc">
  <image href="sprite/b_pdfdoc.png" height="16" width="16"/>
</symbol><symbol viewBox="0 0 32 32" id="b_plugin">
  <path d="M20 2c-2 0-4 1-4 3.1C16 6 17 7 18 8s0 2-2 2h-6v6c0 2-1 3-2 2s-2-2-3-2c-2 0-3 2-3 4s1 4 3.1 4C6 24 7 23 8 22s2 0 2 2v6h6c2 0 3-1 2-2s-2-2-2-2.9c0-2.1 2-3.1 4-3.1s4 1 4 3c0 1-1 2-2 3s0 2 2 2h6V10h-6c-2 0-3-1-2-2s2-2 2-3c0-2-2-3-4-3z"/>
</symbol><symbol viewBox="0 0 32 32" id="b_plus">
  <path d="M6 6v18h18V6zm14 8v2h-4v4h-2v-4h-4v-2h4v-4h2v4z"/>
</symbol><symbol viewBox="0 0 16 16" id="b_prevpage">
  <image href="sprite/b_prevpage.png" height="16" width="16"/>
</symbol><symbol viewBox="0 0 32 32" id="b_primary">
  <path d="M22 2c-4.4 0-8 3.6-8 8 0 .6.1 1.2.2 1.8L2 24v4l2 2h4v-4h4v-4h4v-4l1.4-1.4c1.3.9 3 1.4 4.6 1.4 4.4 0 8-3.6 8-8s-3.6-8-8-8zm2 4c1.1 0 2 .9 2 2s-.9 2-2 2-2-.9-2-2 .9-2 2-2zm0 14v4h-4v2h4v4h2v-4h4v-2h-4v-4z"/>
</symbol><symbol viewBox="0 0 32 32" id="b_print">
  <path d="M8 2v6H6l-4 5v11h5.1L5 30h22l-2.1-6H30V13l-4-5h-2V2zm2 2h12v6H10zm15 10a1 1 0 0 1 1 1 1 1 0 0 1-1 1 1 1 0 0 1-1-1 1 1 0 0 1 1-1zm-13.7 4h9.4L24 28H8zm1.2 2-.5 2h8l-.5-2zm-1.1 4-.6 2h10.4l-.6-2z"/>
</symbol><symbol viewBox="0 0 32 32" id="b_props">
  <path d="M2 2v28h14c-.5-.6-.9-1.3-1.2-2H4V8h24v6.8c.7.3 1.4.7 2 1.2V2zm4 8v4h4v-4zm6 0v4h6v-4zm8 0v4h6v-4zM6 16v4h4v-4zm6 0v4h2.8c.7-1.6 1.8-3 3.2-4zm-6 6v4h4v-4zm6 0v4h2.2c-.1-.7-.2-1.3-.2-2s.1-1.3.2-2z"/>
  <path d="m23 16-.4 2.2-1.7.7-1.9-1.3-1.4 1.4 1.3 1.9-.7 1.7-2.2.4v2l2.2.4.7 1.7-1.3 1.9 1.4 1.4 1.9-1.3 1.7.7.4 2.2h2l.4-2.2 1.7-.7 1.9 1.3 1.4-1.4-1.3-1.9.7-1.7L32 25v-2l-2.2-.4-.7-1.7 1.3-1.9-1.4-1.4-1.9 1.3-1.7-.7L25 16zm1 5c1.7 0 3 1.3 3 3s-1.3 3-3 3-3-1.3-3-3 1.3-3 3-3z"/>
</symbol><symbol viewBox="0 0 32 32" id="b_relations">
  <path d="M2 2v4h6v2H2v2h6v2H2v2h8V2zm10 4v2h4v4h4v-2h-2V6zm10 0v16h8v-2h-6v-2h6v-2h-6v-2h6v-2h-6v-2h6V6zm-8 8v8h-2v2h4v-8h4v-2zM2 18v4h6v2H2v2h6v2H2v2h8V18z"/>
</symbol><symbol viewBox="0 0 24 24" xml:space="preserve" id="b_rename">
  <path stroke="#000" stroke-width="2" stroke-miterlimit="10" d="M17 16h4V8h-4m-5 0H3v8h9m-6-4h5"/>
  <path stroke="#000" stroke-width="2" stroke-linejoin="round" stroke-miterlimit="10" d="M20 4h-2c-1.1 0-2 .9-2 2v12c0 1.1.9 2 2 2h2m-8 0h2c1.1 0 2-.9 2-2V6c0-1.1-.9-2-2-2h-2"/>
</symbol><symbol viewBox="0 0 32 32" id="b_report">
  <path d="M4 2v4H2v2h2v4H2v2h2v4H2v2h2v4H2v2h2v4h24c1 0 2-1 2-2V4c0-1-1-2-2-2zm2 2h4v24H6v-2h2v-2H6v-4h2v-2H6v-4h2v-2H6V8h2V6H6z"/>
</symbol><symbol viewBox="0 0 16 16" id="b_right">
  <image href="sprite/b_right.png" height="16" width="16"/>
</symbol><symbol viewBox="0 0 32 32" id="b_routine_add">
  <path d="m21 4-.4 2.2-1.7.7L17 5.6 15.6 7l1.3 1.9-.7 1.7-2.2.4v2l2.2.4.7 1.7-1.3 1.9 1.4 1.4 1.9-1.3 1 .5c1.5-1 3.3-1.6 5.1-1.6 1.1 0 2.1.2 3.1.6l-1-1.5.7-1.7L30 13v-2l-2.2-.4-.7-1.7L28.4 7 27 5.6l-1.9 1.3-1.7-.7L23 4zm1 5c1.7 0 3 1.3 3 3s-1.3 3-3 3-3-1.3-3-3 1.3-3 3-3zM9 12l-.4 2.2-1.7.7L5 13.6 3.6 15l1.3 1.9-.7 1.7L2 19v2l2.2.4.7 1.7L3.6 25 5 26.4l1.9-1.3 1.7.7L9 28h2l.4-2.2 1.7-.7 1.9 1.3 1-1v-.9l-.9-1.4.7-1.7 1.1-.2c.3-.7.6-1.2 1.1-1.8V19l-2.2-.4-.7-1.7 1.3-1.9-1.4-1.4-1.9 1.3-1.7-.7L11 12zm1 5c1.7 0 3 1.3 3 3s-1.3 3-3 3-3-1.3-3-3 1.3-3 3-3zm15 1c-3.9 0-7 3.1-7 7s3.1 7 7 7 7-3.1 7-7-3.1-7-7-7zm5 6v2h-4v4h-2v-4h-4v-2h4v-4h2v4z"/>
</symbol><symbol viewBox="0 0 32 32" id="b_routines">
  <path d="m21 4-.4 2.2-1.7.7L17 5.6 15.6 7l1.3 1.9-.7 1.7-2.2.4v2l2.2.4.7 1.7-1.3 1.9 1.4 1.4 1.9-1.3 1.7.7.4 2.2h2l.4-2.2 1.7-.7 1.9 1.3 1.5-1.3-1.4-2 .7-1.7L30 13v-2l-2.2-.4-.7-1.7L28.4 7 27 5.6l-1.9 1.3-1.7-.7L23 4zm1 5c1.7 0 3 1.3 3 3s-1.3 3-3 3-3-1.3-3-3 1.3-3 3-3zM9 12l-.4 2.2-1.7.7L5 13.6 3.6 15l1.3 1.9-.7 1.7L2 19v2l2.2.4.7 1.7L3.6 25 5 26.4l1.9-1.3 1.7.7L9 28h2l.4-2.2 1.7-.7 1.9 1.3 1.4-1.4-1.3-1.9.7-1.7L18 21v-2l-2.2-.4-.7-1.7 1.3-1.9-1.4-1.4-1.9 1.3-1.7-.7L11 12zm1 5c1.7 0 3 1.3 3 3s-1.3 3-3 3-3-1.3-3-3 1.3-3 3-3z"/>
</symbol><symbol viewBox="0 0 32 32" id="b_save">
  <path d="M2 2v28h4V18c0-1.1.9-2 2-2h16c1.1 0 2 .9 2 2v12h4V6l-4-4zm6 2h16v7c0 .6-.4 1-1 1H9c-.6 0-1-.4-1-1zm10 1v6h4V5zM8 18v2h16v-2zm0 4v2h16v-2zm0 4v2h16v-2z"/>
</symbol><symbol viewBox="0 0 32 32" id="b_saveimage">
  <path d="M2 2v28h4V18c0-1.1.9-2 2-2h16c1.1 0 2 .9 2 2v12h4V6l-4-4zm6 2h16v7c0 .6-.4 1-1 1H9c-.6 0-1-.4-1-1zm10 1v6h4V5zM8 18v2h16v-2zm0 4v2h16v-2zm0 4v2h16v-2z"/>
</symbol><symbol viewBox="0 0 32 32" id="b_sbrowse">
  <path d="M2 2v28h28V2zm8 2h8v4h-8zm10 0h8v4h-8zM4 10h4v4H4zm6 0h8v4h-8zm10 0h8v4h-8zM4 16h4v6H4zm6 0h8v6h-8zm10 0h8v6h-8zm-8 2v2h4v-2zm10 0v2h4v-2zM4 24h4v4H4zm6 0h8v4h-8zm10 0h8v4h-8z"/>
</symbol><symbol viewBox="0 0 10 10" id="b_sdb">
  <image href="sprite/b_sdb.png" height="10" width="10"/>
</symbol><symbol viewBox="0 0 32 32" id="b_search">
  <path d="M12 2C6.5 2 2 6.5 2 12s4.5 10 10 10c2.2 0 4.3-.7 6-2l9 10 3-3-10-9c1.3-1.7 2-3.8 2-6 0-5.5-4.5-10-10-10zm0 3c3.9 0 7 3.1 7 7s-3.1 7-7 7-7-3.1-7-7 3.1-7 7-7z"/>
</symbol><symbol viewBox="0 0 32 32" id="b_select">
  <path d="M12 2C6.5 2 2 6.5 2 12s4.5 10 10 10c2.2 0 4.3-.7 6-2l9 10 3-3-10-9c1.3-1.7 2-3.8 2-6 0-5.5-4.5-10-10-10zm0 3c3.9 0 7 3.1 7 7s-3.1 7-7 7-7-3.1-7-7 3.1-7 7-7z"/>
  <path d="M2 24v6h4v-6zm6 0v6h4v-6zm6 0v6h4v-6z"/>
</symbol><symbol viewBox="0 0 16 16" id="b_snewtbl">
  <image href="sprite/b_snewtbl.png" height="16" width="16"/>
</symbol><symbol viewBox="0 0 32 32" id="b_spatial">
  <path d="M12 2v28h2V2zM2 6v20h8V6zm2 2h4v4H4zm0 6h4v4H4zm0 6h4v4H4zM24 6c-3.3 0-6 2.7-6 6 0 5 4 9 6 14 2-5 6-9 6-14 0-3.3-2.7-6-6-6zm0 3c1.7 0 3 1.3 3 3s-1.3 3-3 3-3-1.3-3-3 1.3-3 3-3z"/>
</symbol><symbol viewBox="0 0 32 32" id="b_sql">
  <path d="M9 2C7.3 2 6 3.3 6 5v21H3c-.5 0-1 .5-1 1 0 1.4 1.3 3 3 3h18c1.7 0 3-1.3 3-3V6h3c.5 0 1-.5 1-1 0-1.4-1.3-3-3-3zm0 2h15.2c-.1.3-.2.7-.2 1v22c0 .6-.4 1-1 1s-1-.5-1-1-.5-1-1-1H8V5c0-.6.4-1 1-1zm1 2v2h10V6zm0 4v2h12v-2zm0 4v2h8v-2zm0 4v2h10v-2zm0 4v2h12v-2z"/>
</symbol><symbol viewBox="0 0 16 16" id="b_sqldoc">
  <image href="sprite/b_sqldoc.png" height="16" width="16"/>
</symbol><symbol viewBox="0 0 32 32" id="b_sqlhelp">
  <path d="M8 2C5.8 2 4 3.8 4 6v20c0 2.2 1.8 4 4 4h20V6h-2v22H9c-4 0-4-6 0-6h15V2zm1 22c-1.3 0-1.3 2 0 2h15v-2z"/>
</symbol><symbol viewBox="0 0 32 32" id="b_table_add">
  <path d="M2 2v28h15.4c-.4-.6-.8-1.3-1-2H4V8h24v8.4c.7.2 1.4.6 2 1V2zm4 8v4h4v-4zm6 0v4h6v-4zm8 0v4h6v-4zM6 16v4h4v-4zm6 0v4h5.4c.2-.3.4-.5.6-.8V16zm8 0v1.4c1.1-.7 2.4-1.2 3.7-1.4zM6 22v4h4v-4zm6 0v4h4c0-.3-.1-.7-.1-1 0-1 .2-2 .5-3z"/>
  <path d="M25 18c-3.9 0-7 3.1-7 7s3.1 7 7 7 7-3.1 7-7-3.1-7-7-7zm5 6v2h-4v4h-2v-4h-4v-2h4v-4h2v4z"/>
</symbol><symbol viewBox="0 0 32 32" id="b_tblanalyse">
  <path d="M2 2v10h5l6 8H8v10h16V20h-5l6-8h5V2H18v10h4l-6 8-6-8h4V2zm2 4h8v4H4zm16 0h8v4h-8zM10 24h12v4H10z"/>
</symbol><symbol viewBox="0 0 32 32" id="b_tblexport">
  <path d="M6 2v11l4-4h2v5h8v12h-8v4h18V12H20V2zm16 0v8h8zM6 27v3h3z"/>
  <path d="m10 12-8 8 8 8v-4h8v-8h-8z"/>
</symbol><symbol viewBox="0 0 32 32" id="b_tblimport">
  <path d="M4 2v12h2V9h2l11 11L9 30h19V12H18V2zm16 0v8h8zM4 26v4h2v-4z"/>
  <path d="M8 12v4H0v8h8v4l8-8z"/>
</symbol><symbol viewBox="0 0 32 32" id="b_tblops">
  <path d="M6 2v2H2v4h4v2h8V8h16V4H14V2zm2 2h4v4H8zm10 8v2H2v4h16v2h8v-2h4v-4h-4v-2zm2 2h4v4h-4zM6 22v2H2v4h4v2h8v-2h16v-4H14v-2zm2 2h4v4H8z"/>
</symbol><symbol viewBox="0 0 32 32" id="b_tbloptimize">
  <path d="M16 2 9 6l4 7 7-4zm4 7v3h8V4h-8zm3 3-4 7 7 4 4-7zm-7.8-7.2 2 3.5-3.5 2-2-3.5zM22 6h4v4h-4zM2 10v20h20v-8h-6v-6h-6v-6zm2 2h4v4H4zm19.8 2.8 3.5 2-2 3.5-3.5-2zM4 18h4v4H4zm6 0h4v4h-4zm-6 6h4v4H4zm6 0h4v4h-4zm6 0h4v4h-4z"/>
</symbol><symbol viewBox="0 0 16 16" id="b_tipp">
  <image href="sprite/b_tipp.png" height="16" width="16"/>
</symbol><symbol viewBox="0 0 32 32" id="b_trigger_add">
  <path d="M2 2v28h4V2zm6 2v18h8.5c1.2-3.5 4.5-5.9 8.2-6L22 13l8-9z"/>
  <path d="M25 18c-3.9 0-7 3.1-7 7s3.1 7 7 7 7-3.1 7-7-3.1-7-7-7zm5 6v2h-4v4h-2v-4h-4v-2h4v-4h2v4z"/>
</symbol><symbol viewBox="0 0 32 32" id="b_triggers">
  <path d="M2 2v28h4V2zm6 2v18h22l-8-9 8-9z"/>
</symbol><symbol viewBox="0 0 16 16" id="b_undo">
  <image href="sprite/b_undo.png" height="16" width="16"/>
</symbol><symbol viewBox="0 0 32 32" id="b_unique">
  <path d="M12 2v28h2V2zM2 6v20h8V6zm2 2h4v4H4zm0 6h4v4H4zm0 6h4v4H4zM18 8v11c0 2.8 2.2 5 5 5 1.1 0 2.1-.4 3-1v1h4V8h-4v10c0 1.1-.9 2-2 2s-2-.9-2-2V8z"/>
</symbol><symbol viewBox="0 0 32 32" id="b_usradd">
  <path d="M16 2c-3 0-7 1-7 7s0 7 2 9c1 1 0 3 0 3s-9 3-9 9h15.5c-1-1.5-1.5-3.2-1.5-5 0-3.9 2.5-7.4 6.2-8.6.8-1.4.8-3 .8-7.4 0-6-4-7-7-7z"/>
  <path d="M25 18c-3.9 0-7 3.1-7 7s3.1 7 7 7 7-3.1 7-7-3.1-7-7-7zm5 6v2h-4v4h-2v-4h-4v-2h4v-4h2v4z"/>
</symbol><symbol viewBox="0 0 32 32" id="b_usrcheck">
  <path d="M2 30c0-6 9-9 9-9s1-2 0-3c-2-2-2-3-2-9s4-7 7-7 7 1 7 7 0 7-2 9c-1 1 0 3 0 3s9 3 9 9z"/>
</symbol><symbol viewBox="0 0 32 32" id="b_usrdrop">
  <path d="M16 2c-3 0-7 1-7 7s0 7 2 9c1 1 0 3 0 3s-9 3-9 9h15.5c-1-1.5-1.5-3.2-1.5-5 0-3.9 2.5-7.4 6.2-8.6.8-1.4.8-3 .8-7.4 0-6-4-7-7-7z"/>
  <path d="M25 18c-3.9 0-7 3.1-7 7s3.1 7 7 7 7-3.1 7-7-3.1-7-7-7zm5 6v2H20v-2z"/>
</symbol><symbol viewBox="0 0 32 32" id="b_usredit">
  <path d="M2 30c0-6 9-9 9-9s1-2 0-3c-2-2-2-3-2-9s4-7 7-7 7 1 7 7 0 7-2 9c-1 1 0 3 0 3s9 3 9 9z"/>
</symbol><symbol viewBox="0 0 32 32" id="b_usrlist">
  <path d="M20 8c-1.7 0-5 .8-5 5s.3 5.7 1.7 6.7c.8.8 0 1.6 0 1.6S10 23.6 10 28h20c0-4.4-6.7-6.7-6.7-6.7s-.8-.8 0-1.6c1.4-1 1.7-2.5 1.7-6.7s-3.3-5-5-5z"/>
  <path d="M12 4c-1.7 0-5 .8-5 5s.3 5.7 1.7 6.7c.8.8 0 1.6 0 1.6S2 19.6 2 24h7c1.3-1.8 3.2-3.1 5-3.8-1.2-2.5-1-5.1-1-7.2 0-4 1.2-5.2 3.5-6.4C15.5 4.5 13.3 4 12 4z"/>
</symbol><symbol viewBox="0 0 32 32" id="b_versions">
  <path d="M14 6v20h16V6zM8 8v16h4v-2h-2V10h2V8zm8 0h12v16H16zM2 10v12h4v-2H4v-8h2v-2z"/>
</symbol><symbol viewBox="0 0 16 16" id="b_view">
  <image href="sprite/b_view.png" height="16" width="16"/>
</symbol><symbol viewBox="0 0 32 32" id="b_view_add">
  <path d="M2 8v22h15.5c-.4-.6-.8-1.3-1-2H4V14h4c-2.2-1.2-3.7-3.5-4-6zm16 4.3c-.6.7-1.2 1.3-2 1.7h4c-.8-.4-1.4-1-2-1.7zm12 0c-.6.7-1.2 1.3-2 1.7v2.5c.7.2 1.4.6 2 1zM6 16v4h4v-4zm6 0v4h5.5c.1-.2.3-.4.5-.6V16zm8 0v1.5c1.5-1 3.2-1.5 5-1.5zM6 22v4h4v-4zm6 0v4h4.1c0-.3-.1-.7-.1-1 0-1 .2-2 .5-3zm0-20c-1.6 0-3.1.7-4 2H6v2h1.1c-.1.3-.1.7-.1 1 0 2.8 2.2 5 5 5s5-2.2 5-5c0-.6.4-1 1-1s1 .4 1 1c0 2.8 2.2 5 5 5s5-2.2 5-5c0-.3 0-.7-.1-1H30V4h-2c-.9-1.3-2.4-2-4-2-1.8 0-3.4.9-4.3 2.5-.5-.3-1.1-.5-1.7-.5s-1.2.2-1.7.5C15.4 2.9 13.8 2 12 2zm0 2c1.7 0 3 1.3 3 3s-1.3 3-3 3-3-1.3-3-3 1.3-3 3-3zm12 0c1.7 0 3 1.3 3 3s-1.3 3-3 3-3-1.3-3-3 1.3-3 3-3zm1 14a7 7 0 0 0-7 7 7 7 0 0 0 7 7 7 7 0 0 0 7-7 7 7 0 0 0-7-7zm-1 2h2v4h4v2h-4v4h-2v-4h-4v-2h4z"/>
</symbol><symbol viewBox="0 0 32 32" id="b_views">
  <path d="M2 8v22h28V12.3c-.6.7-1.2 1.3-2 1.7v14H4V14h4c-2.2-1.2-3.7-3.5-4-6zm16 4.3c-.6.7-1.2 1.3-2 1.7h4c-.8-.4-1.4-1-2-1.7zM6 16v4h4v-4zm6 0v4h6v-4zm8 0v4h6v-4zM6 22v4h4v-4zm6 0v4h6v-4zm8 0v4h6v-4z"/>
  <path d="M12 2c-1.6 0-3.1.7-4 2H6v2h1.1c-.1.3-.1.7-.1 1 0 2.8 2.2 5 5 5s5-2.2 5-5c0-.6.4-1 1-1s1 .4 1 1c0 2.8 2.2 5 5 5s5-2.2 5-5c0-.3 0-.7-.1-1H30V4h-2c-.9-1.3-2.4-2-4-2-1.8 0-3.4.9-4.3 2.5-.5-.3-1.1-.5-1.7-.5s-1.2.2-1.7.5C15.4 2.9 13.8 2 12 2zm0 2c1.7 0 3 1.3 3 3s-1.3 3-3 3-3-1.3-3-3 1.3-3 3-3zm12 0c1.7 0 3 1.3 3 3s-1.3 3-3 3-3-1.3-3-3 1.3-3 3-3z"/>
</symbol><symbol viewBox="0 0 16 16" id="bd_browse">
  <image href="sprite/bd_browse.png" height="16" width="16"/>
</symbol><symbol viewBox="0 0 16 16" id="bd_deltbl">
  <image href="sprite/bd_deltbl.png" height="16" width="16"/>
</symbol><symbol viewBox="0 0 16 16" id="bd_drop">
  <image href="sprite/bd_drop.png" height="16" width="16"/>
</symbol><symbol viewBox="0 0 16 16" id="bd_edit">
  <image href="sprite/bd_edit.png" height="16" width="16"/>
</symbol><symbol viewBox="0 0 16 16" id="bd_empty">
  <image href="sprite/bd_empty.png" height="16" width="16"/>
</symbol><symbol viewBox="0 0 16 16" id="bd_export">
  <image href="sprite/bd_export.png" height="16" width="16"/>
</symbol><symbol viewBox="0 0 16 16" id="bd_firstpage">
  <image href="sprite/bd_firstpage.png" height="16" width="16"/>
</symbol><symbol viewBox="0 0 16 16" id="bd_ftext">
  <image href="sprite/bd_ftext.png" height="16" width="16"/>
</symbol><symbol viewBox="0 0 16 16" id="bd_index">
  <image href="sprite/bd_index.png" height="16" width="16"/>
</symbol><symbol viewBox="0 0 16 16" id="bd_insrow">
  <image href="sprite/bd_insrow.png" height="16" width="16"/>
</symbol><symbol viewBox="0 0 16 16" id="bd_lastpage">
  <image href="sprite/bd_lastpage.png" height="16" width="16"/>
</symbol><symbol viewBox="0 0 16 16" id="bd_nextpage">
  <image href="sprite/bd_nextpage.png" height="16" width="16"/>
</symbol><symbol viewBox="0 0 16 16" id="bd_prevpage">
  <image href="sprite/bd_prevpage.png" height="16" width="16"/>
</symbol><symbol viewBox="0 0 32 32" id="bd_primary">
  <path d="M22 2c-4.4 0-8 3.6-8 8 0 .6.1 1.2.2 1.8L2 24v4l2 2h4v-4h4v-4h4v-4l1.4-1.4c1.3.9 3 1.4 4.6 1.4 4.4 0 8-3.6 8-8s-3.6-8-8-8zm2 4c1.1 0 2 .9 2 2s-.9 2-2 2-2-.9-2-2 .9-2 2-2z"/>
</symbol><symbol viewBox="0 0 16 16" id="bd_routine_add">
  <image href="sprite/bd_routine_add.png" height="16" width="16"/>
</symbol><symbol viewBox="0 0 16 16" id="bd_sbrowse">
  <image href="sprite/bd_sbrowse.png" height="16" width="16"/>
</symbol><symbol viewBox="0 0 16 16" id="bd_select">
  <image href="sprite/bd_select.png" height="16" width="16"/>
</symbol><symbol viewBox="0 0 16 16" id="bd_spatial">
  <image href="sprite/bd_spatial.png" height="16" width="16"/>
</symbol><symbol viewBox="0 0 16 16" id="bd_unique">
  <image href="sprite/bd_unique.png" height="16" width="16"/>
</symbol><symbol viewBox="0 0 32 32" id="centralColumns">
  <path d="M14 2v28h4V2zM4 6v20h8V6zm16 0v20h8V6zM6 8h4v4H6zm16 0h4v4h-4zM6 14h4v4H6zm16 0h4v4h-4zM6 20h4v4H6zm16 0h4v4h-4z"/>
</symbol><symbol viewBox="0 0 32 32" id="centralColumns_add">
  <path d="M14 2v28h3.5c-1-1.5-1.5-3.2-1.5-5 0-2.1.7-4 2-5.6V2zM4 6v20h8V6zm16 0v11.5c.6-.4 1.3-.8 2-1V14h4v2.1c.7.1 1.4.2 2 .4V6zM6 8h4v4H6zm16 0h4v4h-4zM6 14h4v4H6zm0 6h4v4H6zm19-2c-3.9 0-7 3.1-7 7s3.1 7 7 7 7-3.1 7-7-3.1-7-7-7zm5 6v2h-4v4h-2v-4h-4v-2h4.1l-.1-4h2v4z"/>
</symbol><symbol viewBox="0 0 32 32" id="centralColumns_delete">
  <path d="M14 2v28h3.5c-1-1.5-1.5-3.2-1.5-5 0-2.1.7-4 2-5.6V2zM4 6v20h8V6zm16 0v11.5c.6-.4 1.3-.8 2-1V14h4v2.1c.7.1 1.4.2 2 .4V6zM6 8h4v4H6zm16 0h4v4h-4zM6 14h4v4H6zm0 6h4v4H6zm19-2c-3.9 0-7 3.1-7 7s3.1 7 7 7 7-3.1 7-7-3.1-7-7-7zm5 6v2H20v-2z"/>
</symbol><symbol viewBox="0 0 16 16" id="col_drop">
  <image href="sprite/col_drop.png" height="16" width="16"/>
</symbol><symbol viewBox="0 0 32 32" id="console">
  <path d="M2 4v24h28V4zm2 2h24v20H4zm4 4 6 6-6 6h4l6-6-6-6zm10 10-2 2h8v-2z"/>
</symbol><symbol viewBox="0 0 32 32" id="database">
  <path d="M16 2C9.4 2 4 4.2 4 7v4c0 2.8 5.4 5 12 5s12-2.2 12-5V7c0-2.8-5.4-5-12-5zm0 2c5 0 9 1.6 9 3.5S21 11 16 11 7 9.4 7 7.5 11 4 16 4zM4 13v5c0 2.8 5.4 5 12 5s12-2.2 12-5v-5c0 2.8-5.4 5-12 5S4 15.8 4 13zm0 7v5c0 2.8 5.4 5 12 5s12-2.2 12-5v-5c0 2.8-5.4 5-12 5S4 22.8 4 20z"/>
</symbol><symbol viewBox="0 0 32 32" id="db_drop">
  <path d="M16 2C9.4 2 4 4.2 4 7v4c0 2.8 5.4 5 12 5s12-2.2 12-5V7c0-2.8-5.4-5-12-5zm0 2c5 0 9 1.6 9 3.5S21 11 16 11 7 9.4 7 7.5 11 4 16 4zM4 13v5c0 2.8 5.4 5 12 5h.2c.5-2.1 1.8-3.9 3.5-5.2-1.2.2-2.4.2-3.7.2-6.6 0-12-2.2-12-5zm24 0c0 1.1-.9 2.1-2.5 3 .8.1 1.7.2 2.5.5zM4 20v5c0 2.8 5.4 5 12 5 .5 0 1 0 1.5-.1-1-1.5-1.5-3.1-1.5-4.9-6.6 0-12-2.2-12-5zm21-2c-3.9 0-7 3.1-7 7s3.1 7 7 7 7-3.1 7-7-3.1-7-7-7zm5 6v2H20v-2z"/>
</symbol><symbol viewBox="0 0 32 32" id="eye">
  <path d="M9 6C7.3 6 6.6 7.4 6 9l-3 7c-.8 1-1 2.7-1 4 0 3.3 2.7 6 6 6s6-2.7 6-6c0-1.1.9-2 2-2s2 .9 2 2c0 3.3 2.7 6 6 6s6-2.7 6-6c0-1.3-.2-3-1-4l-3-7c-.6-1.6-1.3-3-3-3h-2v2h2c.6 0 .8.5 1 1l2 5.4c-.6-.2-1.3-.4-2-.4-2.2 0-4.2 1.2-5.3 3.1C18 16.4 17 16 16 16s-2 .4-2.7 1.1C12.2 15.2 10.2 14 8 14c-.7 0-1.4.2-2 .4L8 9c.2-.5.4-1 1-1h2V6zM8 16c2.2 0 4 1.8 4 4s-1.8 4-4 4-4-1.8-4-4 1.8-4 4-4zm16 0c2.2 0 4 1.8 4 4s-1.8 4-4 4-4-1.8-4-4 1.8-4 4-4z"/>
</symbol><symbol viewBox="0 0 16 16" id="eye_grey">
  <image href="sprite/eye_grey.png" height="16" width="16"/>
</symbol><symbol viewBox="0 0 32 32" id="hide">
  <path d="M16 8c-1.3 0-2.5.1-3.7.3L14 10c1.1 0 2 .9 2 2l5.1 5.1c.6-.9.9-2 .9-3.1 0-1.2-.3-2.3-1-3.3 3.4 1 6 2.9 7 5.3-.6 1.6-2 3.1-3.9 4.1l1.4 1.4c2.3-1.4 3.9-3.3 4.5-5.5-1.4-4.7-7.2-8-14-8zm-9.5 2.5C4.2 11.9 2.6 13.8 2 16c1.4 4.7 7.2 8 14 8 1.3 0 2.5-.1 3.7-.3l-1.8-1.8c-.6.1-1.3.1-1.9.1-5.6 0-10.6-2.5-12-6 .6-1.6 2-3.1 3.9-4.1zM10 14c0 3.3 2.7 6 6 6zM4 2 2 4l26 26 2-2z"/>
</symbol><symbol viewBox="0 0 9 9" id="item">
  <image href="sprite/item.png" height="9" width="9"/>
</symbol><symbol viewBox="0 0 16 16" id="lightbulb">
  <image href="sprite/lightbulb.png" height="16" width="16"/>
</symbol><symbol viewBox="0 0 16 16" id="lightbulb_off">
  <image href="sprite/lightbulb_off.png" height="16" width="16"/>
</symbol><symbol viewBox="0 0 13 16" id="more">
  <image href="sprite/more.png" height="16" width="13"/>
</symbol><symbol viewBox="0 0 16 16" id="new_data">
  <image href="sprite/new_data.png" height="16" width="16"/>
</symbol><symbol viewBox="0 0 16 16" id="new_data_hovered">
  <image href="sprite/new_data_hovered.png" height="16" width="16"/>
</symbol><symbol viewBox="0 0 16 16" id="new_data_selected">
  <image href="sprite/new_data_selected.png" height="16" width="16"/>
</symbol><symbol viewBox="0 0 16 16" id="new_data_selected_hovered">
  <image href="sprite/new_data_selected_hovered.png" height="16" width="16"/>
</symbol><symbol viewBox="0 0 16 16" id="new_struct">
  <image href="sprite/new_struct.png" height="16" width="16"/>
</symbol><symbol viewBox="0 0 16 16" id="new_struct_hovered">
  <image href="sprite/new_struct_hovered.png" height="16" width="16"/>
</symbol><symbol viewBox="0 0 16 16" id="new_struct_selected">
  <image href="sprite/new_struct_selected.png" height="16" width="16"/>
</symbol><symbol viewBox="0 0 16 16" id="new_struct_selected_hovered">
  <image href="sprite/new_struct_selected_hovered.png" height="16" width="16"/>
</symbol><symbol viewBox="0 0 32 32" id="normalize">
  <path d="M22 2v4h-2V2zm6 2v1.5l-3 3L23.5 7l3-3zM13.5 4l3 3L15 8.5l-3-3V4zM20 8l4 4L6 30l-4-4zm10 2v2h-4v-2zm-10 .4-5 5 1.5 1.6 5-5zm-6-.4v2h-4v-2zm11 5.5 3 3V20h-1.5l-3-3zM22 18v4h-2v-4z"/>
</symbol><symbol viewBox="0 0 32 32" id="pause">
  <path d="M8 6v20h4V6H8zm12 0v20h4V6h-4z"/>
</symbol><symbol viewBox="0 0 16 16" id="php_sym">
  <image href="sprite/php_sym.png" height="16" width="16"/>
</symbol><symbol viewBox="0 0 32 32" id="play">
  <path d="M22 16 10 26V6z"/>
</symbol><symbol viewBox="0 0 32 32" id="s_asc">
  <path d="M16 4 8 14h16zM8 18l8 10 8-10zm4 2h8l-4 5z"/>
</symbol><symbol viewBox="0 0 32 32" id="s_asci">
  <path d="M10 2v2H2v4h12.8c-.6 1.6-1.4 3.3-2.8 5-.7-.9-1.3-1.9-1.8-3H6c.7 2.3 1.8 4.2 3.3 6L4 21l3 3 5-5 4 4 1.4-4.3-2.7-2.7c2.2-2.6 3.5-5.2 4.3-8h3V4h-8V2zm11 10-5 18h4l.7-2.4h4.6L26 30h4l-5-18zm2 7 1.2 4.6h-2.4z"/>
</symbol><symbol viewBox="0 0 16 16" id="s_attention">
  <image href="sprite/s_attention.png" height="16" width="16"/>
</symbol><symbol viewBox="0 0 16 16" id="s_cancel">
  <image href="sprite/s_cancel.png" height="16" width="16"/>
</symbol><symbol viewBox="0 0 16 16" id="s_cancel2">
  <image href="sprite/s_cancel2.png" height="16" width="16"/>
</symbol><symbol viewBox="0 0 32 32" id="s_cog">
  <path d="m14 2-.6 4c-.9.2-1.8.6-2.6 1.1L7.5 4.7 4.7 7.5l2.4 3.3c-.5.8-.9 1.7-1.1 2.6L2 14v4l4 .6c.2.9.6 1.8 1.1 2.6l-2.4 3.3 2.8 2.8 3.3-2.4c.8.5 1.7.9 2.6 1.1l.6 4h4l.6-4c.9-.2 1.8-.6 2.6-1.1l3.3 2.4 2.8-2.8-2.4-3.3c.5-.8.9-1.7 1.1-2.6l4-.6v-4l-4-.6c-.2-.9-.6-1.8-1.1-2.6l2.4-3.3-2.8-2.8-3.3 2.4c-.8-.5-1.7-.9-2.6-1.1L18 2zm2 8c3.3 0 6 2.7 6 6s-2.7 6-6 6-6-2.7-6-6 2.7-6 6-6z"/>
</symbol><symbol viewBox="0 0 23 20" id="s_collapseall">
  <image href="sprite/s_collapseall.png" height="20" width="23"/>
</symbol><symbol viewBox="0 0 32 32" id="s_db">
  <path d="M16 2C9.4 2 4 4.2 4 7v4c0 2.8 5.4 5 12 5s12-2.2 12-5V7c0-2.8-5.4-5-12-5zm0 2c5 0 9 1.6 9 3.5S21 11 16 11 7 9.4 7 7.5 11 4 16 4zM4 13v5c0 2.8 5.4 5 12 5s12-2.2 12-5v-5c0 2.8-5.4 5-12 5S4 15.8 4 13zm0 7v5c0 2.8 5.4 5 12 5s12-2.2 12-5v-5c0 2.8-5.4 5-12 5S4 22.8 4 20z"/>
</symbol><symbol viewBox="0 0 32 32" id="s_desc">
  <path d="M16 4 8 14h16zm0 3 4 5h-8zM8 18l8 10 8-10z"/>
</symbol><symbol viewBox="0 0 32 32" id="s_error">
  <path d="m10 2-8 8v12l8 8h12l8-8V10l-8-8zm3 4h6l-1 12h-4zm1 16h4v4h-4z"/>
</symbol><symbol viewBox="0 0 50 19" id="s_fulltext">
  <image href="sprite/s_fulltext.png" height="19" width="50"/>
</symbol><symbol viewBox="0 0 32 32" id="s_host">
  <path d="M2 2v28h12V2zm2 2h8v2H4zm12 2v2h12v14H16v4h14V6zM4 8h8v2H4zm0 4h8v2H4zm4 14c.6 0 1 .4 1 1s-.4 1-1 1-1-.4-1-1 .4-1 1-1zm8 2v2h6l-4-2z"/>
</symbol><symbol viewBox="0 0 16 16" id="s_info">
  <image href="sprite/s_info.png" height="16" width="16"/>
</symbol><symbol viewBox="0 0 32 32" id="s_lang">
  <path d="M4 2C3 2 2 3 2 4v8c0 1 1 2 2 2h2v8l8-8h6c1 0 2-1 2-2V4c0-1-1-2-2-2zm0 2h16v8h-8v1l-4 4v-5H4zm20 6v4c0 1-1 2-2 2h-6l-5.4 5.4c.4.4.9.6 1.4.6h6l8 8v-8h2c1 0 2-1 2-2v-8c0-1-1-2-2-2z"/>
</symbol><symbol viewBox="0 0 32 32" id="s_link">
  <path d="M23 2c-.7 0-1.5.5-2 1l-4 4 2 2 4-4 4 4-10 10-2-2-2 2 2 2c.5.5 1.3 1 2 1s1.5-.5 2-1l10-10c.5-.5 1-1.3 1-2s-.5-1.5-1-2l-4-4c-.5-.5-1.3-1-2-1zm-8 8c-.7 0-1.5.5-2 1L3 21c-.5.5-1 1.3-1 2s.5 1.5 1 2l4 4c.5.5 1.3 1 2 1s1.5-.5 2-1l4-4-2-2-4 4-4-4 10-10 2 2 2-2-2-2c-.5-.5-1.3-1-2-1z"/>
</symbol><symbol viewBox="0 0 32 32" id="s_lock">
  <path d="M16 2C10.5 2 6 6.5 6 12v4H4v14h24V16h-2v-4c0-5.5-4.5-10-10-10zm0 4c3.3 0 6 2.7 6 6v4H10v-4c0-3.3 2.7-6 6-6zm0 16a2 2 0 0 1 2 2 2 2 0 0 1-2 2 2 2 0 0 1-2-2 2 2 0 0 1 2-2z"/>
</symbol><symbol viewBox="0 0 32 32" id="s_loggoff">
  <path d="M14 4 2 16l12 12v-6h10V10H14zm4 0v2h10v20H18v2h12V4z"/>
</symbol><symbol viewBox="0 0 32 32" id="s_notice">
  <path d="M17 2h-2L2 28v2h28v-2zm1 10v8h-4v-8zm0 10v4h-4v-4z"/>
</symbol><symbol viewBox="0 0 32 32" id="s_okay">
  <path d="M16 2C8.3 2 2 8.3 2 16s6.3 14 14 14 14-6.3 14-14S23.7 2 16 2zm6 8 3 3-11 11-7-7 3-3 4 4z"/>
</symbol><symbol viewBox="0 0 50 19" id="s_partialtext">
  <image href="sprite/s_partialtext.png" height="19" width="50"/>
</symbol><symbol viewBox="0 0 32 32" id="s_passwd">
  <path d="M16 2C10.5 2 6 6.5 6 12v2H4v16h14v-2H6v-8h12v-4h6v4h2v8h-2v2h4V14h-2v-2c0-5.5-4.5-10-10-10zm0 4c3.3 0 6 2.7 6 6v2H10v-2c0-3.3 2.7-6 6-6zm4 12v12h2V18zm-10 4c-1.1 0-2 .9-2 2s.9 2 2 2 2-.9 2-2-.9-2-2-2zm6 0c-1.1 0-2 .9-2 2s.9 2 2 2 2-.9 2-2-.9-2-2-2z"/>
</symbol><symbol viewBox="0 0 16 16" id="s_process">
  <image href="sprite/s_process.png" height="16" width="16"/>
</symbol><symbol viewBox="0 0 11 11" id="s_really">
  <image href="sprite/s_really.png" height="11" width="11"/>
</symbol><symbol viewBox="0 0 32 32" id="s_reload">
  <path d="m14 2 4 4h-2C9.4 6 4 11.4 4 18s5.4 12 12 12 12-5.4 12-12h-4c0 4.4-3.6 8-8 8s-8-3.6-8-8 3.6-8 8-8h2l-4 4h4l6-6-6-6z"/>
</symbol><symbol viewBox="0 0 32 32" id="s_replication">
  <path d="M2 12v8h10v-8zm18 0v8h10v-8zM4 14h6v4H4zm18 0h6v4h-6zM4 2v8h8L9.6 7.6C11.2 6.6 13.1 6 15 6c3.1 0 7.1 1.5 9 4h4c-2.3-4.9-7.6-8-13-8-3 0-5.9 1-8.3 2.7zm0 20c2.3 4.9 7.6 8 13 8 3 0 5.9-1 8.3-2.7L28 30v-8h-8l2.4 2.4c-1.6 1-3.5 1.6-5.4 1.6-3.1 0-7.1-1.5-9-4z"/>
</symbol><symbol viewBox="0 0 32 32" id="s_rights">
  <path d="M2 6v20h28V6zm8 4c1 0 3 .5 3 3s-.2 3.4-1 4c-.5.5 0 1 0 1s4 1.4 4 4H4c0-2.6 4-4 4-4s.5-.5 0-1c-.8-.6-1-1.5-1-4s2-3 3-3zm8 0h10v2H18zm0 4h8v2h-8zm0 4h10v2H18z"/>
</symbol><symbol viewBox="0 0 16 16" id="s_sortable">
  <image href="sprite/s_sortable.png" height="16" width="16"/>
</symbol><symbol viewBox="0 0 32 32" id="s_status">
  <path d="M2 2v8h28V2zm2 2h2v4H4zm4 0h2v4H8zm4 0h2v4h-2zm4 0h2v4h-2zm11 0c.6 0 1 .4 1 1s-.4 1-1 1-1-.4-1-1 .4-1 1-1zM2 12v8h28v-8zm2 2h2v4H4zm4 0h2v4H8zm4 0h2v4h-2zm4 0h2v4h-2zm11 0c.6 0 1 .4 1 1s-.4 1-1 1-1-.4-1-1 .4-1 1-1zM2 22v8h28v-8zm2 2h2v4H4zm4 0h2v4H8zm4 0h2v4h-2zm4 0h2v4h-2zm11 0c.6 0 1 .4 1 1s-.4 1-1 1-1-.4-1-1 .4-1 1-1z"/>
</symbol><symbol viewBox="0 0 32 32" id="s_success">
  <path d="m4 17 9 9 15-16-4-4-11 12-5-5z"/>
</symbol><symbol viewBox="0 0 16 16" id="s_sync">
  <image href="sprite/s_sync.png" height="16" width="16"/>
</symbol><symbol viewBox="0 0 32 32" id="s_tbl">
  <path d="M2 2v28h28V2zm2 6h24v20H4zm2 2v4h4v-4zm6 0v4h6v-4zm8 0v4h6v-4zM6 16v4h4v-4zm6 0v4h6v-4zm8 0v4h6v-4zM6 22v4h4v-4zm6 0v4h6v-4zm8 0v4h6v-4z"/>
</symbol><symbol viewBox="0 0 32 32" id="s_theme">
  <path d="M16 4C8.3 4 2 9.8 2 17c0 4.5 2.5 8.6 6.6 11h2.7c-.8-1.1-1.3-2.4-1.3-3.8 0-3.4 2.7-6.2 6-6.2s6 2.8 6 6.2c0 1.4-.5 2.7-1.3 3.8h2.7c4.1-2.4 6.6-6.5 6.6-11 0-7.2-6.3-13-14-13zm0 2c2.2 0 4 1.3 4 3s-1.8 3-4 3-4-1.3-4-3 1.8-3 4-3zm-7.5 4c1.4 0 2.5 1.1 2.5 2.5S9.9 15 8.5 15 6 13.9 6 12.5 7.1 10 8.5 10zm15 0c1.4 0 2.5 1.1 2.5 2.5S24.9 15 23.5 15 21 13.9 21 12.5s1.1-2.5 2.5-2.5zM6 16c1.1 0 2 .9 2 2s-.9 2-2 2-2-.9-2-2 .9-2 2-2zm20 0c1.1 0 2 .9 2 2s-.9 2-2 2-2-.9-2-2 .9-2 2-2z"/>
</symbol><symbol viewBox="0 0 32 32" id="s_top">
  <path d="M8 24h1l7-7 7 7h1v-5l-7-7h7V8H8v4h7l-7 7z"/>
</symbol><symbol viewBox="0 0 32 32" id="s_unlink">
  <path d="M10 2v6h2V2zm13 0c-.7 0-1.5.5-2 1l-5 5h4l3-3 4 4-11 11h4l9-9c.5-.5 1-1.3 1-2s-.5-1.5-1-2l-4-4c-.5-.5-1.3-1-2-1zM2 10v2h6v-2zm10 2-9 9c-.5.5-1 1.3-1 2s.5 1.5 1 2l4 4c.5.5 1.3 1 2 1s1.5-.5 2-1l5-5h-4l-3 3-4-4 11-11zm12 8v2h6v-2zm-4 4v6h2v-6z"/>
</symbol><symbol viewBox="0 0 32 32" id="s_unlock">
  <path d="M16 2C10.5 2 6 6.5 6 12v4H4v14h24V16H10v-4c0-3.3 2.7-6 6-6s6 2.7 6 6h4c0-5.5-4.5-10-10-10zm0 20a2 2 0 0 1 2 2 2 2 0 0 1-2 2 2 2 0 0 1-2-2 2 2 0 0 1 2-2z"/>
</symbol><symbol viewBox="0 0 32 32" id="s_vars">
  <path d="M16 2C9.4 2 4 4.2 4 7v4c0 2.8 5.4 5 12 5s12-2.2 12-5V7c0-2.8-5.4-5-12-5zm0 2c5 0 9 1.6 9 3.5S21 11 16 11 7 9.4 7 7.5 11 4 16 4zM4 13v5c0 2.8 5.4 5 12 5v-5c-6.6 0-12-2.2-12-5zm24 0c0 1.1-.8 2.1-2.4 3H28zM4 20v5c0 2.8 5.4 5 12 5v-5c-6.6 0-12-2.2-12-5zm14-2v14h14V18zm2 2h10v10H20zm2 2v2h6v-2zm0 4v2h6v-2z"/>
</symbol><symbol viewBox="0 0 16 16" id="s_views">
  <image href="sprite/s_views.png" height="16" width="16"/>
</symbol><symbol viewBox="0 0 32 32" id="show">
  <path d="M16 8C9.2 8 3.4 11.3 2 16c1.4 4.7 7.2 8 14 8s12.6-3.3 14-8c-1.4-4.7-7.2-8-14-8zm-2 2a2 2 0 0 1 2 2 2 2 0 0 1-2 2 2 2 0 0 1-2-2 2 2 0 0 1 2-2zm7 .7c3.4.9 6 2.9 7 5.3-1.4 3.5-6.4 6-12 6S5.4 19.5 4 16c1-2.4 3.6-4.3 7-5.3a6 6 0 0 0-1 3.3 6 6 0 0 0 6 6 6 6 0 0 0 6-6 6 6 0 0 0-1-3.3z"/>
</symbol><symbol viewBox="0 0 32 32" id="window-new">
  <path d="M6 10v20h24V10zm16 2h2v2h-2zm4 0h2v2h-2zM8 16h20v12H8z"/>
  <path d="M2 2v20h2V8h22V2zm16 2h2v2h-2zm4 0h2v2h-2z"/>
</symbol></svg>