<svg viewBox="0 0 32 32" xmlns="http://www.w3.org/2000/svg"><path d="m2 8v22h28v-17.7c-.6.7-1.2 1.3-2 1.7v14h-24v-14h4c-2.2-1.2-3.7-3.5-4-6zm16 4.3c-.6.7-1.2 1.3-2 1.7h4c-.8-.4-1.4-1-2-1.7zm-12 3.7v4h4v-4zm6 0v4h6v-4zm8 0v4h6v-4zm-14 6v4h4v-4zm6 0v4h6v-4zm8 0v4h6v-4z"/><path d="m12 2c-1.6 0-3.1.7-4 2h-2v2h1.1c-.1.3-.1.7-.1 1 0 2.8 2.2 5 5 5s5-2.2 5-5c0-.6.4-1 1-1s1 .4 1 1c0 2.8 2.2 5 5 5s5-2.2 5-5c0-.3 0-.7-.1-1h1.1v-2h-2c-.9-1.3-2.4-2-4-2-1.8 0-3.4.9-4.3 2.5-.5-.3-1.1-.5-1.7-.5s-1.2.2-1.7.5c-.9-1.6-2.5-2.5-4.3-2.5zm0 2c1.7 0 3 1.3 3 3s-1.3 3-3 3-3-1.3-3-3 1.3-3 3-3zm12 0c1.7 0 3 1.3 3 3s-1.3 3-3 3-3-1.3-3-3 1.3-3 3-3z"/></svg>