<svg viewBox="0 0 32 32" xmlns="http://www.w3.org/2000/svg"><path d="m16 4c-7.7 0-14 5.8-14 13 0 4.5 2.5 8.6 6.6 11h2.7c-.8-1.1-1.3-2.4-1.3-3.8 0-3.4 2.7-6.2 6-6.2s6 2.8 6 6.2c0 1.4-.5 2.7-1.3 3.8h2.7c4.1-2.4 6.6-6.5 6.6-11 0-7.2-6.3-13-14-13zm0 2c2.2 0 4 1.3 4 3s-1.8 3-4 3-4-1.3-4-3 1.8-3 4-3zm-7.5 4c1.4 0 2.5 1.1 2.5 2.5s-1.1 2.5-2.5 2.5-2.5-1.1-2.5-2.5 1.1-2.5 2.5-2.5zm15 0c1.4 0 2.5 1.1 2.5 2.5s-1.1 2.5-2.5 2.5-2.5-1.1-2.5-2.5 1.1-2.5 2.5-2.5zm-17.5 6c1.1 0 2 .9 2 2s-.9 2-2 2-2-.9-2-2 .9-2 2-2zm20 0c1.1 0 2 .9 2 2s-.9 2-2 2-2-.9-2-2 .9-2 2-2z"/></svg>