<?xml version="1.0" encoding="UTF-8" standalone="no"?>
<svg xmlns:dc="http://purl.org/dc/elements/1.1/" xmlns:cc="http://creativecommons.org/ns#" xmlns:rdf="http://www.w3.org/1999/02/22-rdf-syntax-ns#" xmlns:svg="http://www.w3.org/2000/svg" xmlns="http://www.w3.org/2000/svg" xmlns:sodipodi="http://sodipodi.sourceforge.net/DTD/sodipodi-0.dtd" xmlns:inkscape="http://www.inkscape.org/namespaces/inkscape" width="132" height="70" viewBox="0 0 132 70" version="1.1" id="svg" inkscape:version="0.92.3 (2405546, 2018-03-11)" sodipodi:docname="pma-logo-2018.svg">
 <sodipodi:namedview id="svgbase" pagecolor="#fff" bordercolor="#666" borderopacity="1.0" inkscape:pageopacity="0.0" inkscape:pageshadow="2" inkscape:document-units="px" inkscape:current-layer="svg" showgrid="true" units="px">
  <inkscape:grid type="xygrid" id="xygrid" />
 </sodipodi:namedview>
 <defs id="defs" />
 <title id="title">phpMyAdmin Logo</title>
 <metadata id="meta">
  <rdf:RDF>
   <cc:Work rdf:about="">
    <dc:title>phpMyAdmin Logo</dc:title>
    <cc:license rdf:resource="http://creativecommons.org/licenses/by-nd/4.0/" />
    <dc:date>2018-04-30</dc:date>
    <dc:creator>
     <cc:Agent>
      <dc:title>Michael Keck, https://github.com/mkkeck</dc:title>
     </cc:Agent>
    </dc:creator>
    <dc:rights>
     <cc:Agent>
      <dc:title>(c) 2018 phpMyAdmin Team</dc:title>
     </cc:Agent>
    </dc:rights>
    <dc:format>image/svg+xml</dc:format>
    <dc:type rdf:resource="http://purl.org/dc/dcmitype/StillImage" />
   </cc:Work>
   <cc:License rdf:about="http://creativecommons.org/licenses/by-nd/4.0/">
    <cc:permits rdf:resource="http://creativecommons.org/ns#Reproduction" />
    <cc:permits rdf:resource="http://creativecommons.org/ns#Distribution" />
    <cc:requires rdf:resource="http://creativecommons.org/ns#Notice" />
    <cc:requires rdf:resource="http://creativecommons.org/ns#Attribution" />
   </cc:License>
  </rdf:RDF>
 </metadata>
 <path style="fill:#949494" id="sailboat" d="M 102,2 C 98.52742,14.84016 93.78468,29.48369 84.299995,45.2 L 99,43.7 Z m 2,6 c 3,9 3.29999,16 4.29999,19 l 3,6 c 2,3 5.7,6.7 12.7,7.7 z m -20.000005,4 -12,34.5 9,-0.89961 z M 103,22 c 0.97217,3.88868 1.96505,15.10546 1.09961,21.2 l 9.60038,-1 z m 26.99999,21 -59.999995,6 c 0,3.10345 2,9 6,9 C 90,58 104,56 115.99999,56 c 1.2974,-0.11872 2.53704,-1.19233 3,-2 2,-5 6.21115,-7.10557 8,-8 2,-1 3,-1.96552 3,-3 z" />
 <path style="fill:#22232f" id="text-frame" d="m 77.20003,46.79991 -4.8,6.6 0.89999,-2.99951 H 61.6997 l 1.10029,-3.60049 h -7.9 l -3.79999,5.9 -0.10001,-5.9 h -7.7 l -1.79997,6 c -0.91206,-1.32769 -2.47733,-2.33002 -4.4,-2.4 h -6.7 l -0.6,1.6 c -0.99737,-1.21079 -2.40841,-1.45131 -4,-1.5 l 1.10004,-3.7 h -6.8 c -0.59305,1.92268 -1.20607,3.87751 -1.80007,5.8 -0.95862,-1.21105 -2.36931,-2.13337 -4.19999,-2.2 L 7.4,50.40039 2,68 h 6.7 l 1.20002,-3.59961 h 0.8 c 1.6131,-0.14463 3.2076,-0.61883 4.40001,-1.30048 l -0.40017,1.30048 h 11.4 L 24.99984,68 h 6.8 l 1.10002,-3.59961 h 0.8 c 1.71812,-0.16895 3.3638,-0.61925 4.60001,-1.40048 l -0.39997,1.40048 h 17.9 L 54.59988,68 l 8.1,-9e-5 c 2.49984,-0.024 4.70682,-1.46006 5.99999,-3.6 l 3.7,4.8e-4 2.20001,-3.30078 h 3 l 0.29999,3.30078 49.80017,-2e-4 2,-7.80028 c 0.49944,-1.617203 0.4242,-3.324715 -0.60004,-4.6 -1.14562,-1.39027 -2.60874,-1.59972 -4.39997,-1.59972 h -4.5 l 1,-3.60028 h -6.8 l -1.69996,5.3 c -1.08363,-1.32307 -2.63542,-1.69972 -4.39965,-1.69972 h -9.70036 l 1.10003,-3.60028 h -6.7 l -1.19994,3.6 -0.80017,2.8e-4 c -2.84723,0.0132 -5.43176,1.33981 -7.1,3.59972 l -0.9,-7.2 z" />
 <path style="fill:#8a8ebd" id="text-php" d="m 21.600427,48.80069 -4.20117,13.59961 h 2.60156 l 2.39844,-7.80078 h 2.10156 c 0.67175,-5.8e-4 1.12873,0.15387 1.29883,0.40039 0.17629,0.24651 0.11706,0.71761 -0.0996,1.40039 l -1.90039,6 h 2.70117 l 2,-6.30078 c 0.40608,-1.27915 0.28058,-2.22568 -0.20117,-2.79883 -0.47367,-0.57931 -1.43363,-0.90039 -2.90039,-0.90039 h -2.29883 l 1.0996,-3.59961 z M 8.8992574,52.4003 4.7000374,65.99991 h 2.59961 l 1.20117,-3.59961 h 2.1992196 c 3.02943,-0.0136 5.59795,-1.83839 6.59961,-4.90039 0.72813,-2.42904 -0.0148,-4.98009 -3.29883,-5.09961 z m 22.9999996,0 -4.19922,13.59961 h 2.59961 l 1.09961,-3.59961 h 2.30078 c 3.02944,-0.0136 5.49834,-1.83839 6.5,-4.90039 0.72813,-2.42904 0.0848,-4.98009 -3.19922,-5.09961 z m -19.20703,2.16406 c 1.62517,0.0131 2.48543,0.75025 1.9082,2.63477 -0.54276,1.70581 -1.80486,2.9623 -3.90039,3 H 9.1004274 l 1.7988296,-5.59961 z m 21.10742,0.0352 h 1.90039 c 1.62517,0.0131 2.37801,0.81665 1.80078,2.70117 -0.54276,1.70581 -1.70525,2.86074 -3.80078,2.89844 h -1.59961 z" />
 <path style="fill:#eb9420" id="text-myadmin" d="m 49.016437,48.79678 -4.21682,0.004 -4.19925,13.59961 h 2.90039 l 3,-10.70117 0.29883,10.70117 h 3.10156 l 6.69922,-10.70117 -3.5,10.70117 h 2.80078 l 4.19925,-13.59961 -4.09961,-0.002 -6.70117,10.4004 z m 32.23438,0 -3.05081,0.004 -9.90039,13.59961 h 3 l 2.20117,-3.30078 h 5.89844 l 0.30078,3.30079 h 3.09961 z m 13.14841,0.004 -1.19922,3.59962 h -2.19921 c -3.02948,0.0141 -5.59991,1.84324 -6.60157,4.90039 -0.49866,1.60851 -0.47613,2.79945 0.10156,3.69922 0.5777,0.89978 1.67083,1.40039 3.19922,1.40039 h 5.09961 l 4.20115,-13.59961 z m 21.500003,0 -0.79883,2.5 h 2.79883 l 0.70113,-2.5 z m -37.099613,2.69923 0.40038,5.19922 h -4 z m -17.29882,0.90039 -1.90044,6.19922 c -0.42148,1.37569 -0.45135,2.30876 0,2.90039 0.45327,0.58547 1.40898,0.90039 2.90039,0.90039 h 2.39844 l -0.0996,0.0996 c -0.45764,0.78628 -0.8817,1.4701 -2,1.5 h -4.69922 l -0.70122,2 h 5.30078 c 2.30393,-0.0221 4.10194,-1.44744 4.90039,-3.90039 l 2.99988,-9.69922 h -2.59961 l -2.50004,7.79883 h -2.10156 c -0.7149,0.005 -1.1434,-0.16425 -1.29883,-0.39844 -0.14926,-0.23419 -0.13803,-0.64995 0.0996,-1.40039 l 1.90038,-6 z m 36.69921,0 -3.09961,10 h 2.59961 l 2.400343,-7.80078 h 3.09961 l -2.4045,7.78516 2.70509,0.0156 2.39844,-7.80079 h 1.5 c 0.69024,-8.3e-4 1.05191,0.1662 1.20117,0.40039 0.14926,0.23419 0.12137,0.66497 -0.0996,1.4004 l -1.80077,6 h 2.59961 l 2.00002,-6.30079 c 0.40846,-1.2853 0.36981,-2.22567 -0.0996,-2.79882 -0.46943,-0.57315 -1.43363,-0.90039 -2.90039,-0.90039 z m 16.599613,0 -3.09961,10 h 2.69922 l 3.10113,-10 z m 5,0 -3.09961,10 h 2.59961 l 2.40044,-7.80078 h 2.19922 c 0.69641,-5.8e-4 1.04193,0.0789 1.20117,0.30078 0.1654,0.22186 0.12522,0.75221 -0.0996,1.5 l -1.80078,6 h 2.90039 l 1.69922,-6.30078 c 0.35631,-1.32063 0.26739,-2.2388 -0.19968,-2.79962 -0.46516,-0.56698 -1.40234,-0.8996 -2.89992,-0.8996 z m -28.798833,2.19922 h 1.59961 l -1.80075,5.59961 h -1.79883 c -1.63677,-0.0133 -2.47909,-0.81317 -1.90039,-2.69922 0.54252,-1.70484 1.8111,-2.86169 3.90039,-2.90039 z" />
</svg>
